<svg width="13" height="13" viewBox="0 0 13 13" fill="none" xmlns="http://www.w3.org/2000/svg">
<path d="M3.47757 8.18177C3.59897 8.11175 3.64053 7.95633 3.57051 7.83493C3.50038 7.71363 3.34507 7.67197 3.22367 7.742C3.10227 7.81212 3.06061 7.96754 3.13073 8.08884C3.20076 8.21024 3.35617 8.2519 3.47757 8.18177Z" fill="#A5CD20"/>
<path d="M2.4371 9.93419L3.71576 12.149C3.99168 12.6275 4.61236 12.8046 5.10321 12.5209C5.58891 12.2402 5.75583 11.6196 5.47485 11.1335L4.71313 9.81398L5.37279 9.43312C5.49419 9.3629 5.53585 9.20768 5.46572 9.08628L5.13555 8.5144C5.17492 8.50676 5.43379 8.45598 9.99884 7.56046C10.5632 7.52982 10.9013 6.91261 10.6163 6.41917L9.77241 4.95763L10.3117 4.14086C10.3646 4.06052 10.3678 3.95728 10.3197 3.87396L9.81189 2.99442C9.76378 2.9111 9.67244 2.8623 9.57673 2.86796L8.59988 2.92657L7.66311 1.30396C7.52742 1.06889 7.28433 0.926567 7.01297 0.923195C7.00969 0.923096 7.00652 0.923096 7.00325 0.923096C6.74101 0.923096 6.50297 1.05362 6.36193 1.2743L3.04509 5.49966L0.888767 6.74459C0.0406606 7.23405 -0.253117 8.32208 0.238231 9.17247C0.68713 9.95006 1.63353 10.2559 2.4371 9.93419ZM5.03518 11.3875C5.17542 11.6301 5.0924 11.9405 4.84911 12.0811C4.60502 12.2222 4.29419 12.1355 4.15553 11.8952L2.886 9.69605L3.76554 9.18824C5.23483 11.7335 5.01157 11.3467 5.03518 11.3875ZM4.45922 9.37411L4.20532 8.93433L4.64509 8.68043L4.899 9.1202L4.45922 9.37411ZM9.45057 3.3842L9.80147 3.99199L9.48855 4.46588L8.88374 3.41822L9.45057 3.3842ZM6.78663 1.5527C6.85477 1.44122 6.96288 1.42972 7.00672 1.43091C7.05006 1.4314 7.15807 1.44489 7.22323 1.55776L10.1765 6.67308C10.2727 6.83961 10.1558 7.04898 9.96284 7.05374C9.92823 7.05453 9.91226 7.06078 9.82359 7.07735L6.69965 1.66647C6.76521 1.58216 6.77364 1.57403 6.78663 1.5527ZM6.36174 2.09692L9.29683 7.18069L4.86716 8.04953L3.52027 5.71667L6.36174 2.09692ZM0.678005 8.91856C0.566524 8.72565 0.50761 8.50666 0.50761 8.28509C0.50761 7.83222 0.751003 7.4105 1.14267 7.18436L3.12165 6.04179L4.39119 8.24065L2.4122 9.38333C1.8059 9.73325 1.02802 9.52477 0.678005 8.91856Z" fill="#A5CD20"/>
<path d="M2.69078 8.34281C2.62066 8.22141 2.46534 8.17975 2.34394 8.24987L1.90416 8.50378C1.78296 8.5738 1.62735 8.53205 1.55732 8.41085C1.4872 8.28945 1.33188 8.24779 1.21048 8.31791C1.08908 8.38804 1.04743 8.54336 1.11755 8.66475C1.32653 9.02677 1.79268 9.15442 2.15807 8.94356L2.59784 8.68965C2.71924 8.61953 2.7609 8.46431 2.69078 8.34281Z" fill="#A5CD20"/>
<path d="M12.6225 1.4662L11.2076 2.25351C11.0851 2.32175 11.041 2.47637 11.1093 2.59886C11.1773 2.72125 11.3318 2.76559 11.4546 2.69725L12.8693 1.90995C12.9919 1.84171 13.036 1.68708 12.9677 1.56459C12.8996 1.442 12.745 1.39797 12.6225 1.4662Z" fill="#A5CD20"/>
<path d="M12.4741 4.09602L11.4931 3.83318C11.3576 3.79688 11.2184 3.87722 11.1821 4.0127C11.1458 4.14819 11.2262 4.28734 11.3617 4.32364L12.3428 4.58647C12.4791 4.62307 12.6176 4.54144 12.6537 4.40695C12.69 4.27147 12.6096 4.13222 12.4741 4.09602Z" fill="#A5CD20"/>
<path d="M10.0092 0.543709L9.74603 1.52482C9.70972 1.6603 9.79006 1.79945 9.92554 1.83585C10.0609 1.87205 10.2002 1.79191 10.2366 1.65633L10.4996 0.675224C10.5359 0.539741 10.4556 0.40049 10.3201 0.364189C10.1847 0.327889 10.0455 0.408226 10.0092 0.543709Z" fill="#A5CD20"/>
</svg>
