<svg width="10" height="11" viewBox="0 0 10 11" fill="none" xmlns="http://www.w3.org/2000/svg">
<g clip-path="url(#clip0_4_9)">
<path d="M8.81419 0.0380859C8.80417 0.0371745 8.79575 0.03125 8.78532 0.03125H4.47412C3.8108 0.03125 3.271 0.644661 3.271 1.39844V1.85417C3.271 2.10573 3.45066 2.3099 3.67204 2.3099C3.89341 2.3099 4.07308 2.10573 4.07308 1.85417V1.39844C4.07308 1.14733 4.25315 0.942708 4.47412 0.942708H6.34257L6.22026 0.989193C5.89541 1.1168 5.67725 1.46452 5.67725 1.85417V8.6901H4.47412C4.25315 8.6901 4.07308 8.48548 4.07308 8.23438V7.32292C4.07308 7.07135 3.89341 6.86719 3.67204 6.86719C3.45066 6.86719 3.271 7.07135 3.271 7.32292V8.23438C3.271 8.98815 3.8108 9.60156 4.47412 9.60156H5.67725V10.0573C5.67725 10.56 6.03698 10.9688 6.47933 10.9688C6.56515 10.9688 6.64656 10.9546 6.73479 10.9236L9.14425 10.0108C9.4695 9.8832 9.68766 9.53548 9.68766 9.14583V0.942708C9.68766 0.411328 9.28462 -0.00520833 8.81419 0.0380859Z" fill="white"/>
<path d="M4.35645 4.26635L2.75229 2.44343C2.63759 2.31309 2.46514 2.2739 2.31515 2.34454C2.16556 2.41517 2.06771 2.58152 2.06771 2.76563V4.13282H0.463542C0.242167 4.13282 0.0625 4.33698 0.0625 4.58855C0.0625 4.84011 0.242167 5.04428 0.463542 5.04428H2.06771V6.41146C2.06771 6.59558 2.16556 6.76192 2.31515 6.83256C2.46514 6.90319 2.63759 6.864 2.75229 6.73366L4.35645 4.91075C4.51326 4.73256 4.51326 4.44454 4.35645 4.26635Z" fill="white"/>
</g>
<defs>
<clipPath id="clip0_4_9">
<rect width="9.625" height="10.9375" fill="white" transform="translate(0.0625 0.03125)"/>
</clipPath>
</defs>
</svg>
