<svg width="13" height="15" viewBox="0 0 13 15" fill="none" xmlns="http://www.w3.org/2000/svg">
<g clip-path="url(#clip0_4_13)">
<path d="M12.4207 7.11116C12.4206 7.111 12.4205 7.11081 12.4203 7.11064L9.89443 4.2542C9.7052 4.04021 9.39914 4.04101 9.21078 4.25606C9.02245 4.47109 9.02318 4.81889 9.2124 5.03291L10.9083 6.95068H0.670898C0.403917 6.95068 0.1875 7.19661 0.1875 7.5C0.1875 7.80338 0.403917 8.04931 0.670898 8.04931H10.9082L9.21243 9.96709C9.0232 10.1811 9.02248 10.5289 9.21081 10.7439C9.39916 10.959 9.70525 10.9598 9.89445 10.7458L12.4203 7.88935C12.4205 7.88919 12.4206 7.889 12.4207 7.88883C12.6101 7.6741 12.6095 7.32518 12.4207 7.11116Z" fill="white"/>
</g>
<defs>
<clipPath id="clip0_4_13">
<rect width="12.375" height="14.0625" fill="white" transform="translate(0.1875 0.468506)"/>
</clipPath>
</defs>
</svg>
