<svg width="11" height="11" viewBox="0 0 11 11" fill="none" xmlns="http://www.w3.org/2000/svg">
<g clip-path="url(#clip0_4_33)">
<path d="M5.47023 5.515C6.11164 5.515 6.66705 5.28496 7.12086 4.83108C7.57467 4.37727 7.80472 3.82201 7.80472 3.18052C7.80472 2.53926 7.57467 1.98393 7.12079 1.52997C6.66691 1.07624 6.11157 0.846191 5.47023 0.846191C4.82875 0.846191 4.27348 1.07624 3.81967 1.53005C3.36586 1.98385 3.13574 2.53919 3.13574 3.18052C3.13574 3.82201 3.36586 4.37734 3.81975 4.83115C4.27363 5.28488 4.82897 5.515 5.47023 5.515Z" fill="white"/>
<path d="M9.55453 8.29921C9.54145 8.11035 9.51497 7.90434 9.476 7.68679C9.43666 7.46761 9.38601 7.26041 9.32538 7.07104C9.26274 6.8753 9.17756 6.68201 9.07226 6.49677C8.96296 6.30451 8.83459 6.1371 8.69055 5.99933C8.53992 5.85521 8.35549 5.73934 8.14223 5.65482C7.92971 5.57074 7.69419 5.52815 7.44226 5.52815C7.34332 5.52815 7.24763 5.56875 7.06284 5.68906C6.94911 5.76322 6.81608 5.849 6.66759 5.94388C6.54063 6.02477 6.36863 6.10057 6.15618 6.16919C5.94891 6.23626 5.73846 6.27027 5.53074 6.27027C5.32302 6.27027 5.11265 6.23626 4.90515 6.16919C4.69293 6.10064 4.52093 6.02485 4.39411 5.94395C4.24703 5.84996 4.11393 5.76419 3.9985 5.68898C3.81393 5.56867 3.71817 5.52808 3.61922 5.52808C3.36722 5.52808 3.13177 5.57074 2.91932 5.65489C2.70621 5.73927 2.52171 5.85514 2.37094 5.99941C2.22696 6.13724 2.09852 6.30458 1.98937 6.49677C1.88415 6.68201 1.79896 6.87523 1.73625 7.07111C1.67569 7.26049 1.62504 7.46761 1.5857 7.68679C1.54673 7.90404 1.52026 8.11013 1.50717 8.29943C1.4943 8.48489 1.48779 8.67737 1.48779 8.87177C1.48779 9.37771 1.64863 9.7873 1.96578 10.0894C2.27902 10.3874 2.69349 10.5387 3.19751 10.5387H7.86442C8.36843 10.5387 8.78276 10.3875 9.09607 10.0894C9.4133 9.78752 9.57413 9.37786 9.57413 8.8717C9.57406 8.67641 9.56748 8.48378 9.55453 8.29921Z" fill="white"/>
</g>
<defs>
<clipPath id="clip0_4_33">
<rect width="9.69231" height="9.69231" fill="white" transform="translate(0.692871 0.846191)"/>
</clipPath>
</defs>
</svg>
