<svg width="76" height="84" viewBox="0 0 76 84" fill="none" xmlns="http://www.w3.org/2000/svg">
<g filter="url(#filter0_d_312_3)">
<circle cx="37.9037" cy="37.9038" r="31.268" transform="rotate(-14.0002 37.9037 37.9038)" fill="url(#paint0_linear_312_3)"/>
</g>
<path d="M22.3628 51.3875C21.361 51.6372 20.4474 51.529 19.6218 51.0629C18.8094 50.5747 18.2783 49.8298 18.0285 48.828C17.7788 47.8263 17.9023 46.9368 18.3992 46.1596C18.9093 45.3604 19.6652 44.8359 20.667 44.5861C21.6687 44.3363 22.5736 44.4467 23.3816 44.9173C24.2028 45.3659 24.7383 46.0911 24.9881 47.0928C25.2379 48.0946 25.1099 49.0038 24.6042 49.8206C24.1117 50.6154 23.3645 51.1377 22.3628 51.3875ZM39.2755 31.5742L37.0712 47.4402L30.9026 48.9782L21.5076 36.0043L27.6236 34.4794L32.4492 41.4804L33.6341 32.9808L39.2755 31.5742ZM57.5861 37.2011L58.7889 42.0253L43.9999 45.7127L43.0468 41.8902L48.1783 34.0586C48.6225 33.3692 48.893 32.807 48.9899 32.3722C49.0868 31.9373 49.0893 31.5354 48.9972 31.1663C48.8833 30.7094 48.6375 30.3973 48.2598 30.2302C47.8953 30.041 47.4231 30.0188 46.8431 30.1634C46.2807 30.3036 45.7908 30.5844 45.3732 31.0059C44.9556 31.4274 44.6829 31.9434 44.5551 32.5539L39.2777 31.3777C39.652 29.8843 40.4216 28.5911 41.5864 27.4979C42.7469 26.3872 44.2849 25.5931 46.2005 25.1155C47.6592 24.7518 49.0101 24.667 50.2532 24.861C51.4963 25.0551 52.5437 25.5126 53.3955 26.2336C54.2473 26.9546 54.8156 27.8863 55.1004 29.0286C55.3546 30.0479 55.3737 31.0605 55.1578 32.0664C54.9551 33.0503 54.3701 34.2602 53.4027 35.696L51.3647 38.7523L57.5861 37.2011Z" fill="white"/>
<defs>
<filter id="filter0_d_312_3" x="1.81796" y="6.62842" width="72.1717" height="76.9822" filterUnits="userSpaceOnUse" color-interpolation-filters="sRGB">
<feFlood flood-opacity="0" result="BackgroundImageFix"/>
<feColorMatrix in="SourceAlpha" type="matrix" values="0 0 0 0 0 0 0 0 0 0 0 0 0 0 0 0 0 0 127 0" result="hardAlpha"/>
<feOffset dy="9.62092"/>
<feGaussianBlur stdDeviation="2.40523"/>
<feComposite in2="hardAlpha" operator="out"/>
<feColorMatrix type="matrix" values="0 0 0 0 0 0 0 0 0 0 0 0 0 0 0 0 0 0 0.25 0"/>
<feBlend mode="normal" in2="BackgroundImageFix" result="effect1_dropShadow_312_3"/>
<feBlend mode="normal" in="SourceGraphic" in2="effect1_dropShadow_312_3" result="shape"/>
</filter>
<linearGradient id="paint0_linear_312_3" x1="-8.397" y1="6.63581" x2="69.1717" y2="69.1718" gradientUnits="userSpaceOnUse">
<stop stop-color="#FF3030"/>
<stop offset="1" stop-color="#BC0909"/>
</linearGradient>
</defs>
</svg>
